# xmcd
#
# Track frame offsets: 
#        150
#        22038
#        39588
#        59650
#        79675
#        97001
#        116013
#        140763
#        162662
#        187563
#        209163
#        226751
#        247938
#        266951
#        291287
#        312738
#
# Disc length: 4494 seconds
#
# Revision: 0
# Processed by: cddbd v1.5.2PL0 Copyright (c) Steve Scherf et al.
# Submitted via: ExactAudioCopyFreeDBPlugin 1.0
#
DISCID=f5118c10
DTITLE=張信哲 - 情歌精選 Disk 2
DYEAR=1900
DGENRE=Pop
TTITLE0=不要對他說
TTITLE1=難以抗拒妳容顏
TTITLE2=今夜唱甚麼歌
TTITLE3=白月光
TTITLE4=有一點動心
TTITLE5=MY MEMORY
TTITLE6=直覺
TTITLE7=下一個永遠
TTITLE8=最傷心是誰
TTITLE9=愛不留
TTITLE10=背叛
TTITLE11=要妳親口對我說
TTITLE12=多心
TTITLE13=我最愛的女人
TTITLE14=你知道應該如何愛著我
TTITLE15=不回首
EXTD=
EXTT0=
EXTT1=
EXTT2=
EXTT3=
EXTT4=
EXTT5=
EXTT6=
EXTT7=
EXTT8=
EXTT9=
EXTT10=
EXTT11=
EXTT12=
EXTT13=
EXTT14=
EXTT15=
PLAYORDER=
